<svg xmlns="http://www.w3.org/2000/svg" xmlns:xlink="http://www.w3.org/1999/xlink"
    viewBox="0 0 20 20" fill="none">
    <defs>
        <clipPath id="clip1258_20868">
            <rect id="联系我们" width="20.000000" height="20.000000" fill="white" fill-opacity="0" />
        </clipPath>
    </defs>
    <rect id="联系我们" width="20.000000" height="20.000000" fill="#FFFFFF" fill-opacity="0" />
    <g clip-path="url(#clip1258_20868)">
        <path id="path"
            d="M13.76 17.07C13.39 17.07 13.04 16.97 12.72 16.78L10.09 15.16C10.01 15.11 9.94 15.04 9.88 14.96C9.82 14.88 9.78 14.8 9.76 14.7C9.73 14.61 9.73 14.51 9.74 14.41C9.76 14.32 9.79 14.22 9.84 14.14C9.89 14.06 9.95 13.98 10.03 13.93C10.11 13.87 10.19 13.83 10.29 13.8C10.38 13.78 10.48 13.77 10.57 13.79C10.67 13.8 10.76 13.84 10.84 13.89L13.47 15.5C13.51 15.53 13.55 15.55 13.6 15.56C13.64 15.58 13.69 15.58 13.74 15.58C13.78 15.59 13.83 15.58 13.87 15.57C13.92 15.56 13.96 15.55 14.01 15.53C14.05 15.51 14.09 15.48 14.12 15.45C14.16 15.42 14.19 15.39 14.22 15.35C14.24 15.31 14.27 15.27 14.28 15.22C14.3 15.18 14.31 15.13 14.32 15.09L15.56 5.12C15.57 5.02 15.56 4.92 15.52 4.82C15.48 4.72 15.41 4.65 15.33 4.58C15.25 4.52 15.15 4.49 15.05 4.48C14.95 4.47 14.85 4.49 14.76 4.53L4.77 9.41C4.67 9.46 4.6 9.53 4.54 9.62C4.48 9.71 4.45 9.81 4.45 9.92C4.45 10.03 4.47 10.13 4.53 10.22C4.58 10.31 4.65 10.38 4.75 10.44L7.35 11.85C7.47 11.91 7.59 11.93 7.71 11.91C7.84 11.89 7.94 11.83 8.03 11.73L12.64 6.6C12.71 6.53 12.78 6.47 12.87 6.43C12.96 6.39 13.05 6.36 13.15 6.36C13.24 6.36 13.34 6.37 13.43 6.4C13.52 6.44 13.6 6.49 13.67 6.55C13.74 6.62 13.8 6.7 13.84 6.79C13.88 6.88 13.9 6.97 13.9 7.07C13.91 7.17 13.89 7.26 13.86 7.36C13.83 7.45 13.78 7.53 13.71 7.6L9.1 12.74C8.95 12.9 8.78 13.04 8.58 13.15C8.39 13.26 8.18 13.33 7.96 13.37C7.74 13.41 7.52 13.41 7.3 13.38C7.08 13.34 6.87 13.27 6.67 13.16L4.11 11.77C3.94 11.68 3.78 11.57 3.65 11.44C3.51 11.3 3.39 11.15 3.29 10.99C3.19 10.82 3.12 10.65 3.07 10.46C3.02 10.27 3 10.08 3 9.89C3 9.7 3.03 9.51 3.08 9.33C3.14 9.15 3.21 8.97 3.32 8.81C3.42 8.65 3.54 8.51 3.68 8.38C3.82 8.26 3.97 8.16 4.14 8.07L14.1 3.21C14.4 3.06 14.71 2.99 15.04 2.99C15.38 3 15.69 3.08 15.98 3.25C16.16 3.35 16.32 3.47 16.46 3.62C16.6 3.77 16.71 3.93 16.8 4.12C16.89 4.3 16.96 4.49 16.99 4.7C17.03 4.9 17.03 5.1 17 5.31L15.76 15.27C15.75 15.39 15.72 15.51 15.69 15.63C15.65 15.75 15.6 15.87 15.54 15.98C15.49 16.09 15.42 16.19 15.35 16.29C15.27 16.38 15.19 16.47 15.1 16.56C15 16.64 14.91 16.71 14.8 16.78C14.7 16.84 14.59 16.89 14.48 16.94C14.36 16.98 14.25 17.01 14.13 17.04C14.01 17.06 13.88 17.07 13.76 17.07Z"
            fill="rgb(139,139,139)" fill-opacity="1.000000" fill-rule="nonzero" />
        <path id="path"
            d="M7.89 17.36C7.8 17.36 7.7 17.34 7.61 17.31C7.53 17.27 7.45 17.21 7.38 17.15C7.31 17.08 7.26 16.99 7.22 16.9C7.18 16.81 7.16 16.72 7.16 16.62L7.16 12.99L8.62 12.99L8.62 16.62C8.62 16.72 8.6 16.82 8.56 16.91C8.53 17 8.47 17.08 8.41 17.15C8.34 17.21 8.26 17.27 8.17 17.31C8.08 17.34 7.99 17.36 7.89 17.36Z"
            fill="rgb(139,139,139)" fill-opacity="1.000000" fill-rule="nonzero" />
    </g>
</svg>