<svg xmlns="http://www.w3.org/2000/svg" width="34" height="35" viewBox="0 0 34 35" fill="none"><path d="M17 34.895c9.298 0 17-7.686 17-17 0-9.299-7.702-17-17.017-17C7.685.895 0 8.596 0 17.895c0 9.314 7.702 17 17 17zm0-14.302c-3.226-.016-5.727-2.715-5.727-6.27-.016-3.357 2.518-6.155 5.727-6.155 3.193 0 5.71 2.798 5.71 6.155 0 3.555-2.5 6.303-5.71 6.27zm0 11.52c-3.686 0-7.603-1.53-10.088-4.213 1.876-2.83 5.645-4.46 10.088-4.46 4.394 0 8.18 1.597 10.072 4.46-2.485 2.683-6.386 4.213-10.072 4.213z" fill="currentColor"/></svg>