<svg xmlns="http://www.w3.org/2000/svg" width="24" height="24" viewBox="0 0 24 24" fill="none">
    <path fill-rule="evenodd" clip-rule="evenodd"
        d="M5.3948 8.24785C5.89262 8.21027 6.32593 8.58498 6.36058 9.083L6.91194 17.0084V17.0423C6.91194 18.562 8.1119 19.8099 9.60009 19.8099H14.4119C15.905 19.8099 17.1001 18.563 17.1001 17.0423V17.009L17.6407 9.08428C17.6747 8.58626 18.1074 8.21098 18.6053 8.24783C19.099 8.28438 19.4706 8.71284 19.4369 9.20682L18.9 17.0774C18.8817 19.6322 16.8736 21.6849 14.4119 21.6849H9.60009C7.14544 21.6849 5.13073 19.6335 5.11207 17.0781L4.56455 9.20795C4.53019 8.71406 4.90112 8.28511 5.3948 8.24785Z"
        fill="rgb(139,139,139)" />
    <path fill-rule="evenodd" clip-rule="evenodd"
        d="M21 5.75C21 6.26777 20.5803 6.6875 20.0625 6.6875H3.9375C3.41973 6.6875 3 6.26777 3 5.75C3 5.23223 3.41973 4.8125 3.9375 4.8125H20.0625C20.5803 4.8125 21 5.23223 21 5.75Z"
        fill="rgb(139,139,139)" />
    <path fill-rule="evenodd" clip-rule="evenodd"
        d="M10.2 10.75C10.6971 10.75 11.1 11.1529 11.1 11.65L11.1 16.1C11.1 16.5971 10.6971 17 10.2 17C9.70299 17 9.30005 16.5971 9.30005 16.1L9.30005 11.65C9.30005 11.1529 9.70299 10.75 10.2 10.75Z"
        fill="rgb(139,139,139)" />
    <path fill-rule="evenodd" clip-rule="evenodd"
        d="M13.7999 10.75C14.297 10.75 14.6999 11.1529 14.6999 11.65L14.6999 16.1C14.6999 16.5971 14.297 17 13.7999 17C13.3028 17 12.8999 16.5971 12.8999 16.1L12.8999 11.65C12.8999 11.1529 13.3028 10.75 13.7999 10.75Z"
        fill="rgb(139,139,139)" />
    <path fill-rule="evenodd" clip-rule="evenodd"
        d="M9.37093 2.87988C9.53733 2.5331 9.88788 2.3125 10.2725 2.3125H13.7269C14.1114 2.3125 14.462 2.53305 14.6284 2.87977L15.8048 5.33074L14.1949 6.16926L13.2436 4.1875H10.7558L9.80489 6.16916L8.19482 5.33084L9.37093 2.87988Z"
        fill="rgb(139,139,139)" />
</svg>