<svg xmlns="http://www.w3.org/2000/svg" width="24" height="24" viewBox="0 0 24 24" fill="none">
    <path
        d="M20.2286 18.25H3.77142C3.34538 18.25 3 18.5954 3 19.0214C3 19.4475 3.34538 19.7928 3.77142 19.7928H20.2286C20.6546 19.7928 21 19.4475 21 19.0214C21 18.5954 20.6546 18.25 20.2286 18.25Z"
        fill="currentColor" />
    <mask id="mask0_1954_727" maskUnits="userSpaceOnUse" x="3" y="2" width="15" height="15">
        <path d="M17.1429 2H3V16.1428H17.1429V2Z" fill="white" />
    </mask>
    <g mask="url(#mask0_1954_727)">
        <path
            d="M4.48999 16.14C4.36999 16.14 4.26002 16.12 4.15002 16.1C4.04002 16.07 3.94003 16.03 3.84003 15.98C3.73003 15.93 3.63999 15.88 3.54999 15.8C3.45999 15.73 3.39001 15.65 3.32001 15.56C3.25001 15.48 3.19001 15.38 3.14001 15.28C3.09001 15.18 3.05003 15.07 3.03003 14.96C3.01003 14.85 3 14.74 3 14.62C3 14.51 3.00998 14.4 3.03998 14.29L3.75 11.33C3.9 10.71 4.20001 10.18 4.64001 9.73L11.4 2.98C11.55 2.82 11.72 2.68 11.91 2.56C12.09 2.44 12.28 2.34 12.49 2.25C12.69 2.17 12.9 2.1 13.12 2.06C13.33 2.02 13.55 2 13.77 2C14 2 14.21 2.02 14.43 2.06C14.65 2.1 14.86 2.17 15.06 2.25C15.27 2.34 15.46 2.44 15.64 2.56C15.83 2.68 16 2.82 16.15 2.98C16.31 3.14 16.45 3.31001 16.57 3.49001C16.69 3.67001 16.79 3.87001 16.88 4.07001C16.96 4.27001 17.03 4.49 17.07 4.7C17.11 4.92 17.13 5.14 17.13 5.36C17.13 5.58 17.11 5.79999 17.07 6.00999C17.03 6.22999 16.96 6.44 16.88 6.64C16.79 6.85 16.69 7.04 16.57 7.22C16.45 7.41 16.31 7.58 16.15 7.73L9.40002 14.49C8.95002 14.94 8.42 15.23 7.81 15.38L4.84003 16.09C4.73003 16.12 4.60999 16.14 4.48999 16.14ZM13.67 3.63C13.22 3.66 12.84 3.84 12.52 4.16L5.78998 10.89C5.55998 11.12 5.41002 11.39 5.33002 11.71L4.66998 14.46L7.42999 13.8C7.73999 13.72 8.02 13.57 8.25 13.34L15 6.58C15.08 6.5 15.15 6.42001 15.22 6.32001C15.28 6.23001 15.33 6.13 15.38 6.02C15.42 5.92 15.45 5.81 15.47 5.7C15.5 5.58 15.51 5.47 15.51 5.36C15.51 5.24 15.5 5.13 15.47 5.02C15.45 4.91 15.42 4.8 15.38 4.69C15.33 4.59 15.28 4.49 15.22 4.39C15.15 4.3 15.08 4.21 15 4.13C14.82 3.96 14.62 3.82001 14.39 3.74001C14.16 3.65001 13.91 3.61 13.67 3.63Z"
            fill="currentColor" />
    </g>
</svg>