<svg xmlns="http://www.w3.org/2000/svg" xmlns:xlink="http://www.w3.org/1999/xlink"
    viewBox="0 0 20 20" fill="none">
    <defs>
        <clipPath id="clip1267_20496">
            <rect id="退出登录" width="20.000000" height="20.000000" fill="white" fill-opacity="0" />
        </clipPath>
    </defs>
    <rect id="退出登录" width="20.000000" height="20.000000" fill="#FFFFFF" fill-opacity="0" />
    <g clip-path="url(#clip1267_20496)">
        <path id="path"
            d="M9.64 17.25L7.29 17.25C7.01 17.25 6.73 17.22 6.45 17.16C6.17 17.11 5.91 17.03 5.64 16.92C5.38 16.81 5.14 16.68 4.9 16.53C4.67 16.37 4.45 16.2 4.25 16C4.05 15.8 3.88 15.58 3.72 15.35C3.56 15.12 3.43 14.87 3.32 14.62C3.21 14.36 3.13 14.09 3.08 13.82C3.02 13.54 3 13.26 3 12.98L3 7.01C3 6.73 3.02 6.45 3.08 6.17C3.13 5.9 3.21 5.63 3.32 5.37C3.43 5.12 3.56 4.87 3.72 4.64C3.88 4.41 4.05 4.19 4.25 3.99C4.45 3.79 4.67 3.62 4.9 3.46C5.14 3.31 5.38 3.18 5.64 3.07C5.91 2.96 6.17 2.88 6.45 2.83C6.73 2.77 7.01 2.75 7.29 2.75L9.64 2.75C9.74 2.75 9.83 2.76 9.92 2.8C10 2.83 10.08 2.89 10.15 2.95C10.21 3.02 10.26 3.09 10.3 3.18C10.33 3.27 10.35 3.36 10.35 3.45C10.35 3.54 10.33 3.63 10.3 3.72C10.26 3.8 10.21 3.88 10.15 3.95C10.08 4.01 10 4.06 9.92 4.1C9.83 4.13 9.74 4.15 9.64 4.15L7.29 4.15C7.1 4.15 6.91 4.17 6.73 4.21C6.54 4.24 6.36 4.3 6.19 4.37C6.01 4.44 5.85 4.53 5.69 4.63C5.53 4.74 5.39 4.85 5.25 4.99C5.12 5.12 5 5.26 4.9 5.42C4.79 5.58 4.7 5.74 4.63 5.91C4.56 6.09 4.5 6.26 4.47 6.45C4.43 6.63 4.41 6.82 4.41 7.01L4.41 12.99C4.41 13.17 4.43 13.36 4.47 13.54C4.5 13.73 4.56 13.9 4.63 14.08C4.7 14.25 4.79 14.41 4.9 14.57C5 14.73 5.12 14.87 5.25 15C5.39 15.14 5.53 15.25 5.69 15.36C5.85 15.46 6.01 15.55 6.19 15.62C6.36 15.69 6.54 15.75 6.73 15.79C6.91 15.82 7.1 15.84 7.29 15.84L9.64 15.84C9.74 15.84 9.83 15.86 9.92 15.89C10 15.93 10.08 15.98 10.15 16.05C10.21 16.11 10.26 16.19 10.3 16.27C10.33 16.36 10.35 16.45 10.35 16.54C10.35 16.64 10.33 16.73 10.3 16.81C10.26 16.9 10.21 16.97 10.14 17.04C10.08 17.11 10 17.16 9.92 17.19C9.83 17.23 9.74 17.25 9.64 17.25Z"
            fill="rgb(139,139,139)" fill-opacity="1.000000" fill-rule="nonzero" />
        <path id="path"
            d="M16.43 10.74L8.92 10.74C8.82 10.74 8.73 10.72 8.65 10.68C8.56 10.64 8.48 10.59 8.42 10.52C8.35 10.45 8.3 10.37 8.26 10.29C8.23 10.2 8.21 10.1 8.21 10.01C8.21 9.91 8.23 9.82 8.26 9.73C8.3 9.64 8.35 9.56 8.42 9.49C8.48 9.42 8.56 9.37 8.65 9.33C8.73 9.3 8.82 9.28 8.92 9.28L16.43 9.28L16.43 10.74Z"
            fill="rgb(139,139,139)" fill-opacity="1.000000" fill-rule="nonzero" />
        <path id="path"
            d="M13.13 13.46C13.06 13.39 13.01 13.31 12.97 13.22C12.94 13.13 12.92 13.04 12.92 12.94C12.92 12.85 12.94 12.75 12.97 12.66C13.01 12.58 13.06 12.5 13.13 12.43L15.48 10.01L13.13 7.59C13.06 7.52 13.01 7.44 12.97 7.35C12.94 7.26 12.92 7.17 12.92 7.07C12.92 6.98 12.94 6.88 12.97 6.79C13.01 6.71 13.06 6.63 13.13 6.56C13.19 6.49 13.27 6.44 13.36 6.4C13.44 6.37 13.53 6.35 13.63 6.35C13.72 6.35 13.81 6.37 13.9 6.4C13.98 6.44 14.06 6.49 14.13 6.56L16.7 9.2C16.8 9.31 16.88 9.43 16.94 9.57C16.99 9.71 17.02 9.86 17.02 10.01C17.02 10.16 16.99 10.31 16.94 10.45C16.88 10.59 16.8 10.71 16.7 10.82L14.13 13.46C14.06 13.53 13.98 13.58 13.9 13.62C13.81 13.65 13.72 13.67 13.63 13.67C13.53 13.67 13.44 13.65 13.36 13.62C13.27 13.58 13.19 13.53 13.13 13.46Z"
            fill="rgb(139,139,139)" fill-opacity="1.000000" fill-rule="nonzero" />
    </g>
</svg>