<svg xmlns="http://www.w3.org/2000/svg" xmlns:xlink="http://www.w3.org/1999/xlink"
    viewBox="0 0 20 20" fill="none">
    <defs>
        <clipPath id="clip1258_20863">
            <rect id="系统设置" width="20.000000" height="20.000000" fill="white" fill-opacity="0" />
        </clipPath>
    </defs>
    <rect id="系统设置" width="20.000000" height="20.000000" fill="#FFFFFF" fill-opacity="0" />
    <g clip-path="url(#clip1258_20863)">
        <path id="path"
            d="M11.21 12.03C11.07 12.1 10.93 12.17 10.78 12.22C10.63 12.26 10.47 12.3 10.31 12.32C10.15 12.34 10 12.34 9.84 12.33C9.68 12.33 9.52 12.3 9.37 12.26C9.21 12.22 9.06 12.17 8.92 12.1C8.78 12.03 8.64 11.95 8.51 11.85C8.39 11.76 8.27 11.66 8.17 11.54C8.06 11.42 7.97 11.3 7.89 11.16C7.81 11.03 7.74 10.89 7.69 10.75C7.64 10.6 7.6 10.45 7.58 10.3C7.56 10.14 7.56 9.99 7.57 9.84C7.58 9.68 7.6 9.53 7.65 9.38C7.69 9.23 7.74 9.09 7.81 8.95C7.88 8.81 7.97 8.68 8.07 8.56C8.16 8.44 8.27 8.32 8.39 8.22C8.51 8.12 8.64 8.03 8.78 7.95C8.92 7.88 9.06 7.81 9.21 7.76C9.36 7.71 9.52 7.68 9.68 7.66C9.84 7.64 10 7.63 10.15 7.64C10.31 7.65 10.47 7.68 10.62 7.72C10.78 7.76 10.93 7.81 11.07 7.88C11.21 7.95 11.35 8.03 11.48 8.12C11.6 8.22 11.72 8.32 11.82 8.44C11.93 8.56 12.02 8.68 12.1 8.81C12.18 8.95 12.25 9.09 12.3 9.23C12.35 9.38 12.39 9.53 12.41 9.68C12.43 9.84 12.43 9.99 12.42 10.14C12.41 10.3 12.39 10.45 12.34 10.6C12.3 10.75 12.25 10.89 12.18 11.03C12.11 11.17 12.02 11.3 11.92 11.42C11.83 11.54 11.72 11.66 11.6 11.76C11.48 11.86 11.35 11.95 11.21 12.03ZM9.54 9.23C9.43 9.28 9.34 9.36 9.27 9.45C9.2 9.55 9.14 9.65 9.11 9.76C9.08 9.87 9.07 9.99 9.09 10.1C9.11 10.22 9.14 10.33 9.2 10.43C9.27 10.53 9.34 10.62 9.44 10.69C9.54 10.76 9.64 10.81 9.76 10.84C9.88 10.87 9.99 10.88 10.11 10.86C10.23 10.85 10.35 10.81 10.45 10.75C10.56 10.7 10.65 10.62 10.72 10.53C10.79 10.43 10.85 10.33 10.88 10.22C10.91 10.11 10.92 9.99 10.9 9.87C10.88 9.76 10.85 9.65 10.79 9.55C10.73 9.45 10.65 9.36 10.55 9.29C10.46 9.22 10.35 9.17 10.23 9.14C10.11 9.11 10 9.1 9.88 9.12C9.76 9.13 9.64 9.17 9.54 9.23Z"
            fill="rgb(139,139,139)" fill-opacity="1.000000" fill-rule="nonzero" />
        <path id="path"
            d="M11.98 17.24C11.69 17.4 11.38 17.48 11.04 17.48L8.94 17.48C8.73 17.48 8.53 17.45 8.34 17.39C8.15 17.32 7.97 17.23 7.8 17.11C7.64 16.99 7.5 16.85 7.39 16.69C7.27 16.53 7.19 16.35 7.13 16.16L6.97 15.6C6.95 15.55 6.93 15.5 6.89 15.46C6.86 15.42 6.82 15.39 6.77 15.36C6.72 15.33 6.67 15.32 6.62 15.31C6.56 15.3 6.51 15.3 6.46 15.32L5.87 15.46C5.68 15.51 5.48 15.53 5.27 15.51C5.07 15.5 4.87 15.45 4.68 15.37C4.5 15.3 4.32 15.19 4.17 15.06C4.02 14.93 3.89 14.78 3.79 14.61L2.75 12.87C2.65 12.7 2.58 12.52 2.54 12.33C2.5 12.13 2.49 11.94 2.51 11.74C2.54 11.55 2.6 11.36 2.68 11.18C2.77 11 2.89 10.84 3.03 10.7L3.45 10.29C3.49 10.25 3.52 10.21 3.54 10.16C3.56 10.11 3.57 10.06 3.57 10C3.57 9.95 3.56 9.9 3.54 9.85C3.52 9.8 3.49 9.75 3.45 9.72L3.03 9.3C2.89 9.16 2.77 9 2.68 8.82C2.6 8.65 2.54 8.46 2.51 8.26C2.49 8.07 2.5 7.87 2.54 7.68C2.58 7.49 2.65 7.3 2.75 7.13L3.8 5.37C3.9 5.2 4.03 5.05 4.18 4.92C4.34 4.79 4.51 4.68 4.7 4.61C4.89 4.53 5.08 4.49 5.29 4.47C5.49 4.45 5.69 4.47 5.89 4.52L6.47 4.66C6.52 4.68 6.58 4.68 6.63 4.67C6.69 4.67 6.74 4.65 6.79 4.62C6.83 4.6 6.87 4.56 6.91 4.52C6.94 4.48 6.97 4.43 6.98 4.38L7.14 3.82C7.2 3.63 7.29 3.45 7.4 3.29C7.52 3.13 7.66 2.99 7.82 2.87C7.98 2.75 8.16 2.66 8.35 2.59C8.55 2.53 8.75 2.5 8.95 2.5L11.06 2.5C11.26 2.5 11.46 2.53 11.65 2.59C11.85 2.66 12.03 2.75 12.19 2.87C12.35 2.99 12.49 3.13 12.61 3.29C12.72 3.45 12.81 3.63 12.86 3.82L13.02 4.38C13.04 4.43 13.06 4.48 13.1 4.52C13.13 4.56 13.17 4.6 13.22 4.62C13.27 4.65 13.32 4.67 13.37 4.67C13.43 4.68 13.48 4.68 13.54 4.66L14.12 4.52C14.32 4.47 14.52 4.45 14.72 4.47C14.92 4.49 15.12 4.53 15.31 4.61C15.49 4.68 15.66 4.79 15.82 4.92C15.97 5.05 16.1 5.2 16.2 5.37L17.24 7.11C17.35 7.28 17.42 7.46 17.46 7.66C17.5 7.85 17.5 8.04 17.48 8.24C17.45 8.44 17.4 8.62 17.31 8.8C17.22 8.98 17.1 9.14 16.96 9.28L16.54 9.69C16.51 9.73 16.48 9.78 16.45 9.82C16.43 9.87 16.42 9.92 16.42 9.98C16.42 10.03 16.43 10.08 16.45 10.13C16.48 10.18 16.51 10.23 16.54 10.26L16.96 10.68C17.11 10.82 17.22 10.98 17.31 11.16C17.4 11.33 17.45 11.52 17.48 11.72C17.5 11.91 17.5 12.11 17.46 12.3C17.42 12.5 17.35 12.68 17.24 12.85L16.19 14.61C16.09 14.78 15.96 14.93 15.81 15.06C15.65 15.19 15.48 15.3 15.29 15.37C15.11 15.45 14.91 15.5 14.71 15.51C14.5 15.53 14.3 15.51 14.1 15.46L13.52 15.32C13.47 15.3 13.41 15.3 13.36 15.31C13.31 15.32 13.25 15.33 13.21 15.36C13.16 15.39 13.12 15.42 13.08 15.46C13.05 15.5 13.03 15.55 13.01 15.6L12.85 16.16C12.78 16.39 12.67 16.6 12.52 16.78C12.37 16.97 12.19 17.12 11.98 17.24ZM5.21 5.92C5.15 5.95 5.09 6 5.06 6.07L4 7.83C3.96 7.91 3.94 8 3.95 8.09C3.96 8.18 4 8.25 4.07 8.32L4.49 8.73C4.57 8.82 4.65 8.91 4.72 9.01C4.78 9.1 4.84 9.21 4.89 9.32C4.93 9.42 4.97 9.54 4.99 9.65C5.01 9.77 5.03 9.88 5.03 10C5.03 10.12 5.01 10.23 4.99 10.35C4.97 10.46 4.93 10.58 4.89 10.68C4.84 10.79 4.78 10.9 4.72 10.99C4.65 11.09 4.57 11.18 4.49 11.27L4.07 11.68C4 11.75 3.96 11.82 3.95 11.91C3.94 12 3.96 12.09 4 12.17L5.05 13.91C5.09 13.99 5.16 14.05 5.25 14.08C5.33 14.12 5.42 14.12 5.52 14.1L6.1 13.96C6.22 13.93 6.33 13.91 6.46 13.9C6.58 13.9 6.7 13.9 6.82 13.92C6.94 13.93 7.06 13.96 7.17 14C7.29 14.04 7.4 14.08 7.5 14.14C7.61 14.2 7.7 14.27 7.8 14.35C7.89 14.42 7.97 14.51 8.04 14.6C8.12 14.69 8.18 14.79 8.24 14.9C8.29 15 8.33 15.11 8.37 15.22L8.53 15.78C8.56 15.87 8.61 15.94 8.68 16C8.76 16.05 8.84 16.08 8.94 16.08L11.04 16.08C11.14 16.08 11.22 16.05 11.3 16C11.37 15.94 11.42 15.87 11.45 15.78L11.61 15.22C11.64 15.11 11.69 15 11.74 14.9C11.8 14.79 11.86 14.69 11.93 14.6C12.01 14.51 12.09 14.42 12.18 14.35C12.27 14.27 12.37 14.2 12.48 14.14C12.58 14.08 12.69 14.04 12.81 14C12.92 13.96 13.04 13.93 13.16 13.92C13.28 13.9 13.4 13.9 13.52 13.9C13.64 13.91 13.76 13.93 13.88 13.96L14.46 14.1C14.55 14.12 14.64 14.12 14.73 14.08C14.82 14.05 14.89 13.99 14.93 13.91L15.99 12.15C16.03 12.07 16.05 11.98 16.04 11.89C16.03 11.8 15.99 11.72 15.92 11.66L15.5 11.25C15.42 11.16 15.34 11.07 15.27 10.97C15.21 10.87 15.15 10.77 15.1 10.66C15.06 10.55 15.02 10.44 15 10.33C14.98 10.21 14.96 10.1 14.96 9.98C14.96 9.86 14.98 9.75 15 9.63C15.02 9.52 15.06 9.4 15.1 9.29C15.15 9.19 15.21 9.08 15.27 8.99C15.34 8.89 15.42 8.8 15.5 8.71L15.92 8.3C15.99 8.23 16.02 8.16 16.04 8.07C16.05 7.97 16.03 7.89 15.99 7.81L14.94 6.07C14.9 5.99 14.83 5.93 14.74 5.9C14.65 5.86 14.57 5.86 14.47 5.88L13.89 6.02C13.77 6.05 13.66 6.07 13.53 6.08C13.41 6.08 13.29 6.08 13.17 6.06C13.05 6.05 12.93 6.02 12.82 5.98C12.7 5.95 12.59 5.9 12.49 5.84C12.38 5.78 12.29 5.71 12.19 5.63C12.1 5.56 12.02 5.47 11.95 5.38C11.87 5.29 11.81 5.19 11.75 5.08C11.7 4.98 11.66 4.87 11.62 4.76L11.46 4.2C11.43 4.11 11.38 4.04 11.31 3.98C11.23 3.93 11.15 3.9 11.05 3.9L8.95 3.9C8.85 3.9 8.77 3.93 8.69 3.98C8.62 4.04 8.57 4.11 8.54 4.2L8.38 4.76C8.35 4.87 8.3 4.98 8.25 5.08C8.19 5.19 8.13 5.29 8.06 5.38C7.98 5.47 7.9 5.56 7.81 5.63C7.72 5.71 7.62 5.78 7.51 5.84C7.41 5.9 7.3 5.95 7.18 5.98C7.07 6.02 6.95 6.05 6.83 6.06C6.71 6.08 6.59 6.08 6.47 6.08C6.35 6.07 6.23 6.05 6.11 6.02L5.53 5.88C5.42 5.85 5.31 5.86 5.21 5.92Z"
            fill="rgb(139,139,139)" fill-opacity="1.000000" fill-rule="nonzero" />
    </g>
</svg>